# xmcd CD database file
#
# Track frame offsets:
#	150
#	20658
#	43380
#	68894
#	91342
#	114479
#	134325
#	150993
#	169932
#	194051
#
# Disc length: 2868 seconds
#
# Revision: 0
# Processed by: cddbd v1.4PL0 Copyright (c) Steve Scherf et al.
# Submitted via: CDex 1.50
#
DISCID=8c0b320a
DTITLE=Manolito Y Su Trabuco - Locos Por La Habana
DYEAR=2004
DGENRE=Salsa
TTITLE0=Locos por la Habana
TTITLE1=Cada uno
TTITLE2=Juego
TTITLE3=10 años
TTITLE4=Donde te perdi
TTITLE5=Ella está
TTITLE6=Todo lo puede
TTITLE7=No te pases
TTITLE8=Suave
TTITLE9=La Carolina
EXTD=YEAR: 2004
EXTT0=
EXTT1=
EXTT2=
EXTT3=
EXTT4=
EXTT5=
EXTT6=
EXTT7=
EXTT8=
EXTT9=
PLAYORDER=
